<?xml version="1.0" encoding="utf-8"?>
<!-- Generator: Adobe Illustrator 21.1.0, SVG Export Plug-In . SVG Version: 6.00 Build 0)  -->
<svg version="1.1" id="Layer_1" xmlns="http://www.w3.org/2000/svg" xmlns:xlink="http://www.w3.org/1999/xlink" x="0px" y="0px"
	 viewBox="0 0 584.4 575.4" style="enable-background:new 0 0 584.4 575.4;" xml:space="preserve">
<style type="text/css">
	.st0{fill:#ED1A3C;stroke:#000000;stroke-width:9;stroke-linecap:round;stroke-linejoin:round;stroke-miterlimit:10;}
	.st1{fill:none;stroke:#DCDDDE;stroke-miterlimit:10;}
	.st2{fill:none;stroke:#283781;stroke-miterlimit:10;}
	.st3{fill:none;stroke:#000000;stroke-width:3;stroke-linecap:round;stroke-linejoin:round;stroke-miterlimit:10;}
	.st4{fill:#2B7CC0;}
	.st5{fill:#2B7CC0;stroke:#000000;stroke-width:10;stroke-linecap:round;stroke-linejoin:round;stroke-miterlimit:10;}
</style>
<polygon class="st0" points="-767.2,864.2 -767,722.7 -625.5,581.2 -554.8,651.9 -483.8,769.9 -413,651.9 -342.2,581.2 
	-200.7,722.7 -200.8,864.2 -483.8,1147.2 "/>
<polygon class="st0" points="291.7,570.5 579.9,287.5 292.2,4.5 4.5,287.5 "/>
<rect x="-1581.9" y="1333.3" class="st1" width="283" height="283"/>
<rect x="-1581.9" y="1333.3" class="st1" width="283" height="141.5"/>
<line class="st1" x1="-1581.9" y1="1474.8" x2="-1440.7" y2="1474.8"/>
<rect x="-1581.9" y="1474.8" class="st1" width="283" height="141.5"/>
<line class="st1" x1="-1440.4" y1="1333.3" x2="-1440.4" y2="1616.3"/>
<line class="st1" x1="-1298.9" y1="1404.1" x2="-1581.9" y2="1404.1"/>
<line class="st1" x1="-1298.9" y1="1545.6" x2="-1581.9" y2="1545.6"/>
<path class="st1" d="M291.9,429"/>
<rect x="-1440.4" y="1333.3" class="st1" width="141.5" height="283"/>
<rect x="-1581.9" y="1333.3" class="st1" width="141.5" height="283"/>
<line class="st1" x1="-1369.6" y1="1333.3" x2="-1369.6" y2="1616.3"/>
<line class="st1" x1="-1511.1" y1="1333.3" x2="-1511.1" y2="1616.3"/>
<rect x="-1298.6" y="1333.3" class="st1" width="283" height="283"/>
<rect x="-1298.6" y="1333.3" class="st1" width="283" height="141.5"/>
<rect x="-1298.6" y="1474.8" class="st1" width="283" height="141.5"/>
<line class="st1" x1="-1157.1" y1="1333.3" x2="-1157.1" y2="1616.3"/>
<line class="st1" x1="-1015.6" y1="1404.1" x2="-1298.6" y2="1404.1"/>
<line class="st1" x1="-1015.6" y1="1545.6" x2="-1298.6" y2="1545.6"/>
<path class="st1" d="M-1015.6,1474.8"/>
<rect x="-1157.1" y="1333.3" class="st1" width="141.5" height="283"/>
<rect x="-1298.6" y="1333.3" class="st1" width="141.5" height="283"/>
<line class="st1" x1="-1086.4" y1="1333.3" x2="-1086.4" y2="1616.3"/>
<line class="st1" x1="-1227.9" y1="1333.3" x2="-1227.9" y2="1616.3"/>
<rect x="-1581.9" y="1050.3" class="st1" width="283" height="141.5"/>
<line class="st1" x1="-1581.9" y1="1191.8" x2="-1440.7" y2="1191.8"/>
<rect x="-1581.9" y="1191.8" class="st1" width="283" height="141.5"/>
<line class="st1" x1="-1440.4" y1="1050.3" x2="-1440.4" y2="1333.3"/>
<line class="st1" x1="-1298.9" y1="1121.1" x2="-1581.9" y2="1121.1"/>
<line class="st1" x1="-1298.9" y1="1262.6" x2="-1581.9" y2="1262.6"/>
<path class="st1" d="M-1298.9,1191.8"/>
<rect x="-1440.4" y="1050.3" class="st1" width="141.5" height="283"/>
<rect x="-1581.9" y="1050.3" class="st1" width="141.5" height="283"/>
<line class="st1" x1="-1369.6" y1="1050.3" x2="-1369.6" y2="1333.3"/>
<line class="st1" x1="-1511.1" y1="1050.3" x2="-1511.1" y2="1333.3"/>
<rect x="-1298.6" y="1050.3" class="st1" width="283" height="141.5"/>
<line class="st1" x1="-1298.6" y1="1191.8" x2="-1157.4" y2="1191.8"/>
<rect x="-1298.6" y="1191.8" class="st1" width="283" height="141.5"/>
<line class="st1" x1="-1157.1" y1="1050.3" x2="-1157.1" y2="1333.3"/>
<line class="st1" x1="-1015.6" y1="1121.1" x2="-1298.6" y2="1121.1"/>
<line class="st1" x1="-1015.6" y1="1262.6" x2="-1298.6" y2="1262.6"/>
<path class="st1" d="M-1015.6,1191.8"/>
<rect x="-1157.1" y="1050.3" class="st1" width="141.5" height="283"/>
<rect x="-1298.6" y="1050.3" class="st1" width="141.5" height="283"/>
<line class="st1" x1="-1086.4" y1="1050.3" x2="-1086.4" y2="1333.3"/>
<line class="st1" x1="-1227.9" y1="1050.3" x2="-1227.9" y2="1333.3"/>
<rect x="-1572" y="3261.3" class="st2" width="283" height="283"/>
<rect x="-1572" y="3261.3" class="st2" width="283" height="141.5"/>
<line class="st2" x1="-1572" y1="3402.8" x2="-1430.8" y2="3402.8"/>
<rect x="-1572" y="3402.8" class="st2" width="283" height="141.5"/>
<line class="st2" x1="-1430.5" y1="3261.3" x2="-1430.5" y2="3544.3"/>
<line class="st2" x1="-1289" y1="3332.1" x2="-1572" y2="3332.1"/>
<line class="st2" x1="-1289" y1="3473.6" x2="-1572" y2="3473.6"/>
<path class="st2" d="M-1289,3402.8"/>
<rect x="-1430.5" y="3261.3" class="st2" width="141.5" height="283"/>
<rect x="-1572" y="3261.3" class="st2" width="141.5" height="283"/>
<line class="st2" x1="-1359.8" y1="3261.3" x2="-1359.8" y2="3544.3"/>
<line class="st2" x1="-1501.3" y1="3261.3" x2="-1501.3" y2="3544.3"/>
<rect x="-1288.8" y="3261.3" class="st2" width="283" height="283"/>
<rect x="-1288.8" y="3261.3" class="st2" width="283" height="141.5"/>
<line class="st2" x1="-1288.8" y1="3402.8" x2="-1147.5" y2="3402.8"/>
<rect x="-1288.8" y="3402.8" class="st2" width="283" height="141.5"/>
<line class="st2" x1="-1147.3" y1="3261.3" x2="-1147.3" y2="3544.3"/>
<line class="st2" x1="-1005.8" y1="3332.1" x2="-1288.8" y2="3332.1"/>
<line class="st2" x1="-1005.8" y1="3473.6" x2="-1288.8" y2="3473.6"/>
<path class="st2" d="M-1005.8,3402.8"/>
<rect x="-1147.3" y="3261.3" class="st2" width="141.5" height="283"/>
<rect x="-1288.8" y="3261.3" class="st2" width="141.5" height="283"/>
<line class="st2" x1="-1076.5" y1="3261.3" x2="-1076.5" y2="3544.3"/>
<line class="st2" x1="-1218" y1="3261.3" x2="-1218" y2="3544.3"/>
<rect x="-1572" y="2978.3" class="st2" width="283" height="283"/>
<rect x="-1572" y="2978.3" class="st2" width="283" height="141.5"/>
<line class="st2" x1="-1572" y1="3119.8" x2="-1430.8" y2="3119.8"/>
<rect x="-1572" y="3119.8" class="st2" width="283" height="141.5"/>
<line class="st2" x1="-1430.5" y1="2978.3" x2="-1430.5" y2="3261.3"/>
<line class="st2" x1="-1289" y1="3049.1" x2="-1572" y2="3049.1"/>
<line class="st2" x1="-1289" y1="3190.6" x2="-1572" y2="3190.6"/>
<path class="st2" d="M-1289,3119.8"/>
<rect x="-1430.5" y="2978.3" class="st2" width="141.5" height="283"/>
<rect x="-1572" y="2978.3" class="st2" width="141.5" height="283"/>
<line class="st2" x1="-1359.8" y1="2978.3" x2="-1359.8" y2="3261.3"/>
<line class="st2" x1="-1501.3" y1="2978.3" x2="-1501.3" y2="3261.3"/>
<rect x="-1288.8" y="2978.3" class="st2" width="283" height="283"/>
<rect x="-1288.8" y="2978.3" class="st2" width="283" height="141.5"/>
<line class="st2" x1="-1288.8" y1="3119.8" x2="-1147.5" y2="3119.8"/>
<rect x="-1288.8" y="3119.8" class="st2" width="283" height="141.5"/>
<line class="st2" x1="-1147.3" y1="2978.3" x2="-1147.3" y2="3261.3"/>
<line class="st2" x1="-1005.8" y1="3049.1" x2="-1288.8" y2="3049.1"/>
<line class="st2" x1="-1005.8" y1="3190.6" x2="-1288.8" y2="3190.6"/>
<path class="st2" d="M-1005.8,3119.8"/>
<rect x="-1147.3" y="2978.3" class="st2" width="141.5" height="283"/>
<rect x="-1288.8" y="2978.3" class="st2" width="141.5" height="283"/>
<line class="st2" x1="-1076.5" y1="2978.3" x2="-1076.5" y2="3261.3"/>
<line class="st2" x1="-1218" y1="2978.3" x2="-1218" y2="3261.3"/>
<polygon class="st2" points="-2336.2,1050.3 -2194.9,908.8 -2053.7,1050.3 -1911.7,908.8 -1770.2,1050.3 -2053.2,1333.3 "/>
<polygon class="st2" points="-1781.1,1818.9 -1851.7,1889.7 -1922.3,1818.9 -1993.3,1889.7 -2064.1,1818.9 -1922.6,1677.4 "/>
<rect x="-2294.7" y="1374.8" transform="matrix(0.7071 -0.7071 0.7071 0.7071 -1685.6503 -1119.8917)" class="st2" width="200.1" height="200.1"/>
<polygon class="st3" points="292.2,4.5 78.2,287.5 291.7,570.5 504.5,287.5 "/>
<line class="st3" x1="4.5" y1="287.5" x2="579.9" y2="287.5"/>
<g>
	<path class="st4" d="M433.7,1290.6c-2.8,0-5-2.2-5-5v-139.4l-65.8-65.8l-67.2,67.2c-1,1-2.3,1.5-3.5,1.5s-2.6-0.5-3.5-1.5
		l-70.8-70.8c-0.9-0.9-1.5-2.2-1.5-3.5V931.9c0-1.3,0.5-2.6,1.5-3.5l70.6-70.8c0.9-0.9,2.2-1.5,3.5-1.5c0,0,0,0,0,0
		c1.3,0,2.6,0.5,3.5,1.5l67.4,67.2l63.7-63.7l-67.5-67.2c-0.9-0.9-1.5-2.2-1.5-3.5s0.5-2.6,1.5-3.5l71-70.8c0.9-0.9,2.2-1.5,3.5-1.5
		h141.8c1.3,0,2.6,0.5,3.5,1.5l70.8,70.8c0.9,0.9,1.5,2.2,1.5,3.5s-0.5,2.6-1.5,3.5l-67.3,67.2l63.8,63.7l67.2-67.2
		c1-1,2.3-1.5,3.5-1.5s2.6,0.5,3.5,1.5l70.8,70.8c0.9,0.9,1.5,2.2,1.5,3.5v141.5c0,1.3-0.5,2.6-1.5,3.5l-70.8,70.8
		c-1,1-2.3,1.5-3.5,1.5s-2.6-0.5-3.5-1.5l-67.2-67.2l-65.8,65.8v139.4c0,2.8-2.2,5-5,5H433.7z"/>
	<path d="M575.5,719.6l70.7,70.8l-70.9,70.8l70.9,70.8l70.8-70.8l70.8,70.8v141.5l-70.8,70.8l-70.8-70.8l-70.7,70.8v141.5H433.7
		v-141.5l-70.8-70.8l-70.8,70.8l-70.8-70.8V931.9l70.6-70.8l70.9,70.8l70.8-70.8l-71-70.8l71-70.8H575.5 M575.5,709.6H433.7
		c-2.6,0-5.2,1-7.1,2.9l-71,70.8c-1.9,1.9-2.9,4.4-2.9,7.1s1.1,5.2,2.9,7.1l63.9,63.7L363,917.7l-63.8-63.7
		c-1.9-1.9-4.4-2.9-7.1-2.9c0,0,0,0,0,0c-2.7,0-5.2,1.1-7.1,2.9l-70.6,70.8c-1.9,1.9-2.9,4.4-2.9,7.1v141.5c0,2.7,1.1,5.2,2.9,7.1
		l70.8,70.8c2,2,4.5,2.9,7.1,2.9s5.1-1,7.1-2.9l63.7-63.7l60.8,60.8v137.4c0,5.5,4.5,10,10,10h141.8c5.5,0,10-4.5,10-10v-137.4
		l60.7-60.8l63.7,63.7c2,2,4.5,2.9,7.1,2.9c2.6,0,5.1-1,7.1-2.9l70.8-70.8c1.9-1.9,2.9-4.4,2.9-7.1V931.9c0-2.7-1.1-5.2-2.9-7.1
		l-70.8-70.8c-2-2-4.5-2.9-7.1-2.9c-2.6,0-5.1,1-7.1,2.9l-63.7,63.7l-56.7-56.6l63.8-63.7c1.9-1.9,2.9-4.4,2.9-7.1
		c0-2.7-1.1-5.2-2.9-7.1l-70.7-70.8C580.7,710.7,578.1,709.6,575.5,709.6L575.5,709.6z"/>
</g>
<path class="st3" d="M73.3,384.7"/>
<polyline class="st3" points="-342.2,581.2 -271.5,722.7 -271.5,864.2 -483.8,1147.2 -696.3,864.2 -696.3,722.7 -625.5,581.2 "/>
<polygon class="st3" points="-483.8,1147.2 -413,864.2 -483.8,769.9 -554.8,864.2 "/>
<polyline class="st3" points="-413,651.9 -342.2,864.2 -483.8,1147.2 -625.5,864.2 -554.8,651.9 "/>
<g>
	<polygon class="st5" points="-1254.1,769.9 -1254.3,699.1 -1325,769.8 -1466.5,628.3 -1466.4,486.8 -1183.5,203.9 -900.1,486.8 
		-900.3,628.3 -1041.8,769.8 -1112.5,699.1 -1112.3,769.9 	"/>
</g>
<polyline class="st3" points="-1325,769.8 -1395.8,628.3 -1395.8,486.8 -1183.5,203.9 -971,486.8 -971,628.3 -1041.8,769.8 "/>
<polygon class="st3" points="-1183.5,203.9 -1254.3,486.8 -1183.5,581.2 -1112.5,486.8 "/>
<polygon class="st3" points="-1254.3,699.1 -1325,486.8 -1183.5,203.9 -1041.8,486.8 -1112.5,699.1 -1183.3,628.4 "/>
<polygon class="st3" points="504.3,719.6 433.6,790.4 433.7,861.1 433.6,931.9 363,931.9 292.1,931.9 221.5,1002.6 291.9,1073.4 
	363,1073.4 433.6,1073.4 504.3,1144.1 575.2,1073.4 716.9,1073.4 787.7,1002.6 716.9,931.9 575.4,931.9 575.2,790.4 "/>
<polyline class="st3" points="575.2,1073.4 504.3,1214.9 433.6,1073.4 "/>
<polyline class="st3" points="646.2,931.9 787.7,1002.6 646.2,1073.4 "/>
<polyline class="st3" points="363,931.9 221.5,1002.6 363,1073.4 "/>
<polyline class="st3" points="433.7,861.1 504.3,719.6 575.4,861.1 "/>
<polyline class="st3" points="575.5,1144.1 504.6,1285.6 433.7,1144.1 "/>
<rect x="404.3" y="902.6" transform="matrix(0.7071 -0.7071 0.7071 0.7071 -561.2109 650.3749)" class="st3" width="200.3" height="200.1"/>
<polygon class="st3" points="575.4,1002.6 504.6,931.9 429.7,1002.6 504.3,1073.4 "/>
<path class="st3" d="M291.7,570.5"/>
<polygon class="st3" points="291.7,570.5 221.2,287.5 292.2,4.5 363,287.5 "/>
<polygon class="st3" points="292.2,573.9 433.7,287.5 292.2,4.5 150.4,287.5 "/>
<line class="st3" x1="292.2" y1="4.5" x2="292.2" y2="573.9"/>
</svg>
