<?xml version="1.0" encoding="utf-8"?>
<!-- Generator: Adobe Illustrator 21.1.0, SVG Export Plug-In . SVG Version: 6.00 Build 0)  -->
<svg version="1.1" id="Layer_1" xmlns="http://www.w3.org/2000/svg" xmlns:xlink="http://www.w3.org/1999/xlink" x="0px" y="0px"
	 viewBox="0 0 60.4 60.3" style="enable-background:new 0 0 60.4 60.3;" xml:space="preserve">
<style type="text/css">
	.st0{fill:#ED1A3C;stroke:#000000;stroke-width:0.943;stroke-linecap:round;stroke-linejoin:round;stroke-miterlimit:10;}
	.st1{fill:none;stroke:#DCDDDE;stroke-miterlimit:10;}
	.st2{fill:none;stroke:#DCDDDE;stroke-width:0.1048;stroke-miterlimit:10;}
	.st3{fill:none;stroke:#283781;stroke-miterlimit:10;}
	.st4{fill:none;stroke:#000000;stroke-width:0.3143;stroke-linecap:round;stroke-linejoin:round;stroke-miterlimit:10;}
	.st5{fill:#2B7CC0;}
	.st6{fill:#ED1A3C;}
	.st7{fill:#2B7CC0;stroke:#000000;stroke-width:1.0478;stroke-linecap:round;stroke-linejoin:round;stroke-miterlimit:10;}
</style>
<polygon class="st0" points="74,-49 74.1,-63.8 88.9,-78.6 96.3,-71.2 103.7,-58.9 111.1,-71.2 118.6,-78.6 133.4,-63.8 133.4,-49 
	103.7,-19.3 "/>
<polygon class="st0" points="249.2,-16.8 279.4,-46.4 249.2,-76.1 219.1,-46.4 "/>
<rect x="-2687.7" y="-392.8" class="st1" width="283" height="283"/>
<rect x="-2687.7" y="-392.8" class="st1" width="283" height="141.5"/>
<line class="st1" x1="-2687.7" y1="-251.3" x2="-2546.5" y2="-251.3"/>
<rect x="-2687.7" y="-251.3" class="st1" width="283" height="141.5"/>
<line class="st1" x1="-2546.2" y1="-392.8" x2="-2546.2" y2="-109.8"/>
<line class="st1" x1="-2404.7" y1="-322" x2="-2687.7" y2="-322"/>
<line class="st1" x1="-2404.7" y1="-180.5" x2="-2687.7" y2="-180.5"/>
<path class="st2" d="M249.2-31.6"/>
<rect x="-2546.2" y="-392.8" class="st1" width="141.5" height="283"/>
<rect x="-2687.7" y="-392.8" class="st1" width="141.5" height="283"/>
<line class="st1" x1="-2475.4" y1="-392.8" x2="-2475.4" y2="-109.8"/>
<line class="st1" x1="-2616.9" y1="-392.8" x2="-2616.9" y2="-109.8"/>
<rect x="-2404.4" y="-392.8" class="st1" width="283" height="283"/>
<rect x="-2404.4" y="-392.8" class="st1" width="283" height="141.5"/>
<rect x="-2404.4" y="-251.3" class="st1" width="283" height="141.5"/>
<line class="st1" x1="-2262.9" y1="-392.8" x2="-2262.9" y2="-109.8"/>
<line class="st1" x1="-2121.4" y1="-322" x2="-2404.4" y2="-322"/>
<line class="st1" x1="-2121.4" y1="-180.5" x2="-2404.4" y2="-180.5"/>
<path class="st1" d="M-2121.4-251.3"/>
<rect x="-2262.9" y="-392.8" class="st1" width="141.5" height="283"/>
<rect x="-2404.4" y="-392.8" class="st1" width="141.5" height="283"/>
<line class="st1" x1="-2192.1" y1="-392.8" x2="-2192.1" y2="-109.8"/>
<line class="st1" x1="-2333.6" y1="-392.8" x2="-2333.6" y2="-109.8"/>
<rect x="-2687.7" y="-675.8" class="st1" width="283" height="141.5"/>
<line class="st1" x1="-2687.7" y1="-534.3" x2="-2546.5" y2="-534.3"/>
<rect x="-2687.7" y="-534.3" class="st1" width="283" height="141.5"/>
<line class="st1" x1="-2546.2" y1="-675.8" x2="-2546.2" y2="-392.8"/>
<line class="st1" x1="-2404.7" y1="-605" x2="-2687.7" y2="-605"/>
<line class="st1" x1="-2404.7" y1="-463.5" x2="-2687.7" y2="-463.5"/>
<path class="st1" d="M-2404.7-534.3"/>
<rect x="-2546.2" y="-675.8" class="st1" width="141.5" height="283"/>
<rect x="-2687.7" y="-675.8" class="st1" width="141.5" height="283"/>
<line class="st1" x1="-2475.4" y1="-675.8" x2="-2475.4" y2="-392.8"/>
<line class="st1" x1="-2616.9" y1="-675.8" x2="-2616.9" y2="-392.8"/>
<rect x="-2404.4" y="-675.8" class="st1" width="283" height="141.5"/>
<line class="st1" x1="-2404.4" y1="-534.3" x2="-2263.2" y2="-534.3"/>
<rect x="-2404.4" y="-534.3" class="st1" width="283" height="141.5"/>
<line class="st1" x1="-2262.9" y1="-675.8" x2="-2262.9" y2="-392.8"/>
<line class="st1" x1="-2121.4" y1="-605" x2="-2404.4" y2="-605"/>
<line class="st1" x1="-2121.4" y1="-463.5" x2="-2404.4" y2="-463.5"/>
<path class="st1" d="M-2121.4-534.3"/>
<rect x="-2262.9" y="-675.8" class="st1" width="141.5" height="283"/>
<rect x="-2404.4" y="-675.8" class="st1" width="141.5" height="283"/>
<line class="st1" x1="-2192.1" y1="-675.8" x2="-2192.1" y2="-392.8"/>
<line class="st1" x1="-2333.6" y1="-675.8" x2="-2333.6" y2="-392.8"/>
<rect x="-2677.8" y="1535.2" class="st3" width="283" height="283"/>
<rect x="-2677.8" y="1535.2" class="st3" width="283" height="141.5"/>
<line class="st3" x1="-2677.8" y1="1676.7" x2="-2536.6" y2="1676.7"/>
<rect x="-2677.8" y="1676.7" class="st3" width="283" height="141.5"/>
<line class="st3" x1="-2536.3" y1="1535.2" x2="-2536.3" y2="1818.2"/>
<line class="st3" x1="-2394.8" y1="1606" x2="-2677.8" y2="1606"/>
<line class="st3" x1="-2394.8" y1="1747.5" x2="-2677.8" y2="1747.5"/>
<path class="st3" d="M-2394.8,1676.7"/>
<rect x="-2536.3" y="1535.2" class="st3" width="141.5" height="283"/>
<rect x="-2677.8" y="1535.2" class="st3" width="141.5" height="283"/>
<line class="st3" x1="-2465.6" y1="1535.2" x2="-2465.6" y2="1818.2"/>
<line class="st3" x1="-2607.1" y1="1535.2" x2="-2607.1" y2="1818.2"/>
<rect x="-2394.5" y="1535.2" class="st3" width="283" height="283"/>
<rect x="-2394.5" y="1535.2" class="st3" width="283" height="141.5"/>
<line class="st3" x1="-2394.5" y1="1676.7" x2="-2253.3" y2="1676.7"/>
<rect x="-2394.5" y="1676.7" class="st3" width="283" height="141.5"/>
<line class="st3" x1="-2253" y1="1535.2" x2="-2253" y2="1818.2"/>
<line class="st3" x1="-2111.5" y1="1606" x2="-2394.5" y2="1606"/>
<line class="st3" x1="-2111.5" y1="1747.5" x2="-2394.5" y2="1747.5"/>
<path class="st3" d="M-2111.5,1676.7"/>
<rect x="-2253" y="1535.2" class="st3" width="141.5" height="283"/>
<rect x="-2394.5" y="1535.2" class="st3" width="141.5" height="283"/>
<line class="st3" x1="-2182.3" y1="1535.2" x2="-2182.3" y2="1818.2"/>
<line class="st3" x1="-2323.8" y1="1535.2" x2="-2323.8" y2="1818.2"/>
<rect x="-2677.8" y="1252.2" class="st3" width="283" height="283"/>
<rect x="-2677.8" y="1252.2" class="st3" width="283" height="141.5"/>
<line class="st3" x1="-2677.8" y1="1393.7" x2="-2536.6" y2="1393.7"/>
<rect x="-2677.8" y="1393.7" class="st3" width="283" height="141.5"/>
<line class="st3" x1="-2536.3" y1="1252.2" x2="-2536.3" y2="1535.2"/>
<line class="st3" x1="-2394.8" y1="1323" x2="-2677.8" y2="1323"/>
<line class="st3" x1="-2394.8" y1="1464.5" x2="-2677.8" y2="1464.5"/>
<path class="st3" d="M-2394.8,1393.7"/>
<rect x="-2536.3" y="1252.2" class="st3" width="141.5" height="283"/>
<rect x="-2677.8" y="1252.2" class="st3" width="141.5" height="283"/>
<line class="st3" x1="-2465.6" y1="1252.2" x2="-2465.6" y2="1535.2"/>
<line class="st3" x1="-2607.1" y1="1252.2" x2="-2607.1" y2="1535.2"/>
<rect x="-2394.5" y="1252.2" class="st3" width="283" height="283"/>
<rect x="-2394.5" y="1252.2" class="st3" width="283" height="141.5"/>
<line class="st3" x1="-2394.5" y1="1393.7" x2="-2253.3" y2="1393.7"/>
<rect x="-2394.5" y="1393.7" class="st3" width="283" height="141.5"/>
<line class="st3" x1="-2253" y1="1252.2" x2="-2253" y2="1535.2"/>
<line class="st3" x1="-2111.5" y1="1323" x2="-2394.5" y2="1323"/>
<line class="st3" x1="-2111.5" y1="1464.5" x2="-2394.5" y2="1464.5"/>
<path class="st3" d="M-2111.5,1393.7"/>
<rect x="-2253" y="1252.2" class="st3" width="141.5" height="283"/>
<rect x="-2394.5" y="1252.2" class="st3" width="141.5" height="283"/>
<line class="st3" x1="-2182.3" y1="1252.2" x2="-2182.3" y2="1535.2"/>
<line class="st3" x1="-2323.8" y1="1252.2" x2="-2323.8" y2="1535.2"/>
<polygon class="st3" points="-3441.9,-675.8 -3300.7,-817.3 -3159.5,-675.8 -3017.4,-817.3 -2875.9,-675.8 -3158.9,-392.8 "/>
<polygon class="st3" points="-2886.8,92.8 -2957.4,163.6 -3028.1,92.8 -3099.1,163.6 -3169.8,92.8 -3028.3,-48.7 "/>
<rect x="-3400.5" y="-351.3" transform="matrix(0.7071 -0.7071 0.7071 0.7071 -788.9971 -2407.3501)" class="st3" width="200.1" height="200.1"/>
<polygon class="st4" points="249.2,-76.1 226.8,-46.4 249.2,-16.8 271.5,-46.4 "/>
<line class="st4" x1="219.1" y1="-46.4" x2="279.4" y2="-46.4"/>
<g>
	<path class="st5" d="M168.4-16.2c-0.3,0-0.5-0.2-0.5-0.5v-14.6l-6.9-6.9l-7,7c-0.1,0.1-0.2,0.2-0.4,0.2s-0.3-0.1-0.4-0.2l-7.4-7.4
		c-0.1-0.1-0.2-0.2-0.2-0.4v-14.8c0-0.1,0.1-0.3,0.2-0.4l7.4-7.4c0.1-0.1,0.2-0.2,0.4-0.2c0,0,0,0,0,0c0.1,0,0.3,0.1,0.4,0.2l7.1,7
		l6.7-6.7l-7.1-7c-0.1-0.1-0.2-0.2-0.2-0.4s0.1-0.3,0.2-0.4l7.4-7.4c0.1-0.1,0.2-0.2,0.4-0.2h14.9c0.1,0,0.3,0.1,0.4,0.2L191-69
		c0.1,0.1,0.2,0.2,0.2,0.4c0,0.1-0.1,0.3-0.2,0.4l-7.1,7l6.7,6.7l7-7c0.1-0.1,0.2-0.2,0.4-0.2s0.3,0.1,0.4,0.2l7.4,7.4
		c0.1,0.1,0.2,0.2,0.2,0.4V-39c0,0.1-0.1,0.3-0.2,0.4l-7.4,7.4c-0.1,0.1-0.2,0.2-0.4,0.2s-0.3-0.1-0.4-0.2l-7-7l-6.9,6.9v14.6
		c0,0.3-0.2,0.5-0.5,0.5H168.4z"/>
	<path d="M183.2-76.1l7.4,7.4l-7.4,7.4l7.4,7.4l7.4-7.4l7.4,7.4V-39l-7.4,7.4l-7.4-7.4l-7.4,7.4v14.8h-14.9v-14.8L161-39l-7.4,7.4
		l-7.4-7.4v-14.8l7.4-7.4l7.4,7.4l7.4-7.4l-7.4-7.4l7.4-7.4H183.2 M183.2-77.1h-14.9c-0.3,0-0.5,0.1-0.7,0.3l-7.4,7.4
		c-0.2,0.2-0.3,0.5-0.3,0.7s0.1,0.5,0.3,0.7l6.7,6.7l-5.9,5.9l-6.7-6.7c-0.2-0.2-0.5-0.3-0.7-0.3c-0.3,0-0.5,0.1-0.7,0.3l-7.4,7.4
		c-0.2,0.2-0.3,0.5-0.3,0.7V-39c0,0.3,0.1,0.5,0.3,0.7l7.4,7.4c0.2,0.2,0.5,0.3,0.7,0.3s0.5-0.1,0.7-0.3l6.7-6.7l6.4,6.4v14.4
		c0,0.6,0.5,1,1,1h14.9c0.6,0,1-0.5,1-1v-14.4l6.4-6.4l6.7,6.7c0.2,0.2,0.5,0.3,0.7,0.3s0.5-0.1,0.7-0.3l7.4-7.4
		c0.2-0.2,0.3-0.5,0.3-0.7v-14.8c0-0.3-0.1-0.5-0.3-0.7l-7.4-7.4c-0.2-0.2-0.5-0.3-0.7-0.3s-0.5,0.1-0.7,0.3l-6.7,6.7l-5.9-5.9
		l6.7-6.7c0.2-0.2,0.3-0.5,0.3-0.7c0-0.3-0.1-0.5-0.3-0.7l-7.4-7.4C183.8-77,183.5-77.1,183.2-77.1L183.2-77.1z"/>
</g>
<path class="st4" d="M226.3-36.3"/>
<polyline class="st4" points="118.6,-78.6 126,-63.8 126,-49 103.7,-19.3 81.5,-49 81.5,-63.8 88.9,-78.6 "/>
<polygon class="st4" points="103.7,-19.3 111.1,-49 103.7,-58.9 96.3,-49 "/>
<polyline class="st4" points="111.1,-71.2 118.6,-49 103.7,-19.3 88.9,-49 96.3,-71.2 "/>
<polygon class="st6" points="77.1,32.7 77.1,17.9 91.9,3.1 99.4,10.5 106.8,22.8 114.2,10.5 121.6,3.1 136.5,17.9 136.4,32.7 
	106.8,62.4 "/>
<g>
	<polygon class="st7" points="22.8,-16.8 22.8,-24.2 15.3,-16.8 0.5,-31.6 0.5,-46.4 30.2,-76.1 59.9,-46.4 59.9,-31.6 45,-16.8 
		37.6,-24.2 37.6,-16.8 	"/>
</g>
<polyline class="st4" points="15.3,-16.8 7.9,-31.6 7.9,-46.4 30.2,-76.1 52.4,-46.4 52.4,-31.6 45,-16.8 "/>
<polygon class="st4" points="30.2,-76.1 22.8,-46.4 30.2,-36.5 37.6,-46.4 "/>
<polygon class="st4" points="22.8,-24.2 15.3,-46.4 30.2,-76.1 45,-46.4 37.6,-24.2 30.2,-31.6 "/>
<g>
	<polygon class="st5" points="22.8,59.8 22.8,52.4 15.3,59.8 0.5,45 0.5,30.2 30.2,0.5 59.9,30.2 59.9,45 45,59.8 37.6,52.4 
		37.6,59.8 	"/>
</g>
<polygon class="st4" points="175.8,-76.1 168.3,-68.7 168.4,-61.2 168.3,-53.8 161,-53.8 153.5,-53.8 146.1,-46.4 153.5,-39 
	161,-39 168.3,-39 175.8,-31.6 183.2,-39 198,-39 205.5,-46.4 198,-53.8 183.2,-53.8 183.2,-68.7 "/>
<polyline class="st4" points="183.2,-39 175.8,-24.2 168.3,-39 "/>
<polyline class="st4" points="190.6,-53.8 205.5,-46.4 190.6,-39 "/>
<polyline class="st4" points="161,-53.8 146.1,-46.4 161,-39 "/>
<polyline class="st4" points="168.4,-61.2 175.8,-76.1 183.2,-61.2 "/>
<polyline class="st4" points="183.2,-31.6 175.8,-16.8 168.4,-31.6 "/>
<rect x="165.3" y="-56.9" transform="matrix(0.7071 -0.7071 0.7071 0.7071 84.3082 110.6964)" class="st4" width="21" height="21"/>
<polygon class="st4" points="183.2,-46.4 175.8,-53.8 167.9,-46.4 175.8,-39 "/>
<g>
	<polygon class="st5" points="188.5,68.8 188.5,53.9 195.9,46.5 203.3,53.9 210.7,46.5 210.7,31.7 203.3,24.3 195.9,31.7 
		188.5,24.3 195.9,16.9 188.5,9.5 173.6,9.5 166.2,16.9 173.6,24.3 166.2,31.7 158.8,24.3 151.4,31.7 151.4,46.5 158.8,53.9 
		166.2,46.5 173.6,53.9 173.6,68.8 	"/>
</g>
<path class="st4" d="M249.2-16.8"/>
<polygon class="st4" points="249.2,-16.8 241.8,-46.4 249.2,-76.1 256.7,-46.4 "/>
<polygon class="st4" points="249.2,-16.4 264.1,-46.4 249.2,-76.1 234.4,-46.4 "/>
<line class="st4" x1="249.2" y1="-76.1" x2="249.2" y2="-16.4"/>
<polygon class="st6" points="253.8,62.3 284,32.7 253.8,3 223.7,32.7 "/>
</svg>
